<svg xmlns="http://www.w3.org/2000/svg" viewBox="0 0 472.89 586.7"><defs><style>.cls-1{fill:#545454;}.cls-2{fill:#fff;}</style></defs><g id="Calque_2" data-name="Calque 2"><g id="Calque_1-2" data-name="Calque 1"><path class="cls-1" d="M223.32,548.22C78,337.58,51.05,316,51.05,238.55c0-106,86-192,192-192s192,86,192,192c0,77.41-27,99-172.26,309.67a24,24,0,0,1-39.47,0Z"/><path class="cls-1" d="M403.33,571.7a24.13,24.13,0,0,1-19.21-9.6L19.78,76.32a24,24,0,0,1,4.81-33.6L55.14,19.8A23.83,23.83,0,0,1,69.53,15a24.13,24.13,0,0,1,19.21,9.6L453.08,510.38a24,24,0,0,1-4.8,33.6L417.72,566.9A23.81,23.81,0,0,1,403.33,571.7Z"/><path class="cls-2" d="M69.53,30a9,9,0,0,1,7.21,3.6L441.08,519.38a9,9,0,0,1-1.8,12.6L408.72,554.9a9,9,0,0,1-12.6-1.8L31.79,67.32a9,9,0,0,1,1.8-12.6L64.14,31.8A9,9,0,0,1,69.53,30m0-30h0A38.72,38.72,0,0,0,46.14,7.8L15.59,30.72a39,39,0,0,0-7.81,54.6L372.12,571.1a39.19,39.19,0,0,0,31.21,15.6,38.7,38.7,0,0,0,23.39-7.8L457.28,556a39,39,0,0,0,7.8-54.6L100.74,15.6A39.19,39.19,0,0,0,69.54,0Z"/></g></g></svg>