<?xml version="1.0" encoding="UTF-8" standalone="no"?>
<svg xmlns:rdf="http://www.w3.org/1999/02/22-rdf-syntax-ns#" xmlns="http://www.w3.org/2000/svg" height="29mm" width="29mm" version="1.1" xmlns:cc="http://creativecommons.org/ns#" xmlns:dc="http://purl.org/dc/elements/1.1/">
<metadata>
<rdf:RDF>
<cc:Work rdf:about="">
<dc:format>image/svg+xml</dc:format>
<dc:type rdf:resource="http://purl.org/dc/dcmitype/StillImage"/>
<dc:title/>
</cc:Work>
</rdf:RDF>
</metadata>
<rect ry="17.087" height="102.68" width="102.68" y="-0.075615" x="0" fill="#FFF"/>
<path d="m14.188,14.188v24.781h24.781v-24.781h-24.781zm28.344,0v7.0625c1.0647,0.25272,3.1585-0.5237,3.5312,0.4209-0.31252,1.0153,0.76612,3.4217-0.84181,3.1416-1.1636,0.15381-3.2793-0.64454-2.6894,1.2627-0.15297,1.4704-0.18176,2.8165,1.6836,2.2685,1.7821-0.46474,2.1277,0.50708,1.8476,2.1045v4.9892c1.0647,0.25272,3.1585-0.5237,3.5312,0.4209v6.6728c1.0798,0.24801,3.1723-0.51672,3.5625,0.4209,0.31333,1.0041-0.76821,3.403,0.84181,3.1103,1.1636,0.15381,3.2793-0.64454,2.6894,1.2627-0.15297,1.4704-0.18176,2.8165,1.6836,2.2685,1.7803,0.45246,2.173-0.48259,1.8789-2.1045v-15.614c-1.0798-0.24801-3.1723,0.51672-3.5625-0.4209v-6.6416c-1.0647-0.25272-3.1585,0.5237-3.5312-0.4209-0.31252-1.0153,0.76612-3.4217-0.84181-3.1416-1.1694-0.1584-3.3058,0.65017-2.7207-1.2627v-5.7998h-7.0625zm14.156,10.625c1.0798-0.24801,3.1723,0.51672,3.5625-0.4209-0.31252-1.0153,0.76612-3.4217-0.84181-3.1416-1.1694,0.1584-3.3058-0.65017-2.7207,1.2627v2.2998zm3.562,24.781c0.24801,1.0798-0.51672,3.1723,0.4209,3.5625h10.204c0.24801-1.0798-0.51672-3.1723,0.4209-3.5625,1.0041-0.31333,3.403,0.76821,3.1103-0.84181-0.15381-1.1636,0.64454-3.2793-1.2627-2.6894h-5.831c-0.25272,1.0647,0.5237,3.1585-0.4209,3.5312h-6.6416zm7.0625-3.5312c-0.25272-1.0647,0.5237-3.1585-0.4209-3.5312-1.0041,0.31333-3.403-0.76821-3.1103,0.84181,0.15381,1.1636-0.64454,3.2793,1.2627,2.6894h2.2685zm7.0938,0c1.0647-0.25272,3.1585,0.5237,3.5312-0.4209-0.31333-1.0041,0.76821-3.403-0.84181-3.1103-1.1636,0.15381-3.2793-0.64454-2.6894,1.2627v2.2685zm-3.531,7.093v10.625c-1.0798,0.24801-3.1723-0.51672-3.5625,0.4209,0.31333,1.0041-0.76821,3.403,0.84181,3.1103,1.1694,0.1584,3.3058-0.65017,2.7207,1.2627-0.14284,1.4706-0.19638,2.852,1.6836,2.2998,1.7821-0.46474,2.1277,0.50708,1.8476,2.1045-0.6099,1.9273,1.255,1.3798,2.5254,1.4267h4.5683c0.25272,1.0647-0.5237,3.1585,0.4209,3.5312,1.0041-0.31333,3.403,0.76821,3.1103-0.84181v-9.7832c-1.0647-0.25272-3.1585,0.5237-3.5312-0.4209,0.31333-1.0041-0.76821-3.403,0.84181-3.1103h6.2519c-0.25272-1.0647,0.5237-3.1585-0.4209-3.5312h-10.235v7.0625c-1.0647-0.25272-3.1585,0.5237-3.5312-0.4209v-10.204c1.0647-0.25272,3.1585,0.5237,3.5312-0.4209-0.31333-1.0041,0.76821-3.403-0.84181-3.1103h-6.2207zm3.5312,21.25c-1.0647,0.25272-3.1585-0.5237-3.5312,0.4209,0.31333,1.0041-0.76821,3.403,0.84181,3.1103,1.1636-0.15381,3.2793,0.64454,2.6894-1.2627v-2.2685zm0,3.5312v7.0938c1.0647-0.25272,3.1585,0.5237,3.5312-0.4209v-6.6728h-3.5312zm3.5312,7.0938c0.24801,1.0798-0.51672,3.1723,0.4209,3.5625,1.0153-0.31252,3.4217,0.76612,3.1416-0.84181-0.1584-1.1694,0.65017-3.3058-1.2627-2.7207h-2.2998zm-3.5312,0c-1.0647,0.25272-3.1585-0.5237-3.5312,0.4209,0.31252,1.0153-0.76612,3.4217,0.84181,3.1416,1.1636-0.15381,3.2793,0.64454,2.6894-1.2627v-2.2998zm-7.0938-21.25v-7.0938h-7.0625c0.24801,1.0798-0.51672,3.1723,0.4209,3.5625,1.0041,0.31333,3.403-0.76821,3.1103,0.84181,0.15381,1.1636-0.64454,3.2793,1.2627,2.6894h2.2685zm-7.062-7.093c-0.25272-1.0647,0.5237-3.1585-0.4209-3.5312-1.0153,0.31252-3.4217-0.76612-3.1416,0.84181,0.15381,1.1636-0.64454,3.2793,1.2627,2.6894h2.2998zm-3.5625-3.5312c-0.24801-1.0798,0.51672-3.1723-0.4209-3.5625h-6.6728c0.24801,1.0798-0.51672,3.1723,0.4209,3.5625h6.6728zm-7.0938,0c-1.0647,0.25272-3.1585-0.5237-3.5312,0.4209-0.31333,1.0041,0.76821,3.403-0.84181,3.1103-1.1636-0.15381-3.2793,0.64454-2.6894-1.2627-0.15297-1.4704-0.18176-2.8165,1.6836-2.2685,1.7821,0.46474,2.1277-0.50708,1.8476-2.1045,0.60681-1.9346-1.228-1.4277-2.5254-1.458-1.7696,0.45224-0.73031-1.9045-1.0058-2.9463v-4.1162h-10.656v10.625h-7.0625c-0.24801-1.0798,0.51672-3.1723-0.4209-3.5625-1.0153,0.31252-3.4217-0.76612-3.1416,0.84181v9.8144h7.0938c0.24801-1.0798-0.51672-3.1723,0.4209-3.5625h6.6728c0.25272-1.0647-0.5237-3.1585,0.4209-3.5312,1.0041,0.31333,3.403-0.76821,3.1103,0.84181-0.15381,1.1636,0.64454,3.2793-1.2627,2.6894-1.4704-0.15297-2.8165-0.18176-2.2685,1.6836-0.45246,1.7803,0.48259,2.173,2.1045,1.8789h4.9892v10.625c1.0647-0.25272,3.1585,0.5237,3.5312-0.4209,0.31252-1.0153-0.76612-3.4217,0.84181-3.1416,1.1636-0.15381,3.2793,0.64454,2.6894-1.2627-0.15297-1.4704-0.18176-2.8165,1.6836-2.2685h5.4101c-0.25272-1.0647,0.5237-3.1585-0.4209-3.5312h-6.6728v-7.0938zm-3.532,17.718c0.25272,1.0647-0.5237,3.1585,0.4209,3.5312h6.6728c-0.25272-1.0647,0.5237-3.1585-0.4209-3.5312h-6.6728zm7.0938,3.5312v7.0938h7.0938v7.0938h7.0625v-7.0938c-1.0647-0.25272-3.1585,0.5237-3.5312-0.4209-0.31252-1.0153,0.76612-3.4217-0.84181-3.1416-1.1636-0.15381-3.2793,0.64454-2.6894-1.2627,0.15297-1.4704,0.18176-2.8165-1.6836-2.2685h-5.4101zm7.0938,0c1.0647-0.25272,3.1585,0.5237,3.5312-0.4209v-6.6728h-7.0938c0.24801,1.0798-0.51672,3.1723,0.4209,3.5625,1.0153,0.31252,3.4217-0.76612,3.1416,0.84181v2.6894zm-7.094,7.094c-1.0798,0.24801-3.1723-0.51672-3.5625,0.4209,0.31333,1.0041-0.76821,3.403,0.84181,3.1103,1.1694-0.1584,3.3058,0.65017,2.7207-1.2627v-2.2685zm0,3.5312c0.24801,1.0798-0.51672,3.1723,0.4209,3.5625,1.0041-0.31333,3.403,0.76821,3.1103-0.84181-0.1584-1.1694,0.65017-3.3058-1.2627-2.7207h-2.2685zm-3.5625,0h-7.0625c0.24801,1.0798-0.51672,3.1723,0.4209,3.5625h6.6416v-3.5625zm0-3.5312c-0.24801-1.0798,0.51672-3.1723-0.4209-3.5625-1.0041-0.31333-3.403,0.76821-3.1103-0.84181-0.15381-1.1636,0.64454-3.2793-1.2627-2.6894-1.4704-0.15297-2.8165-0.18176-2.2685,1.6836v5.4101h7.0625zm-28.344-31.906c-0.25272-1.0647,0.5237-3.1585-0.4209-3.5312-1.0041,0.31333-3.403-0.76821-3.1103,0.84181,0.15381,1.1636-0.64454,3.2793,1.2627,2.6894h2.2685zm-3.5312,0c-1.0647,0.25272-3.1585-0.5237-3.5312,0.4209v6.6728c1.0647-0.25272,3.1585,0.5237,3.5312-0.4209v-6.6728zm0-3.5312c-0.25272-1.0647,0.5237-3.1585-0.4209-3.5312-1.0041,0.31333-3.403-0.76821-3.1103,0.84181,0.15381,1.1636-0.64454,3.2793,1.2627,2.6894h2.2685zm3.5312,0h7.0938c-0.25272-1.0647,0.5237-3.1585-0.4209-3.5312h-6.6728v3.5312zm21.281-3.5312c1.0647-0.25272,3.1585,0.5237,3.5312-0.4209v-6.6728c-1.0647,0.25272-3.1585-0.5237-3.5312,0.4209v6.6728zm3.5312,7.0625c1.0647-0.25272,3.1585,0.5237,3.5312-0.4209-0.31333-1.0041,0.76821-3.403-0.84181-3.1103-1.1636,0.15381-3.2793-0.64454-2.6894,1.2627v2.2685zm7.094-35.406c0.25272,1.0647-0.5237,3.1585,0.4209,3.5312,1.0041-0.31333,3.403,0.76821,3.1103-0.84181-0.15381-1.1636,0.64454-3.2793-1.2627-2.6894h-2.2685zm10.625,0v24.781h24.812v-24.781h-24.812zm-46.062,3.5312h17.719v17.719h-17.719v-17.719zm49.594,0h17.719v17.719h-17.719v-17.719zm-46.063,3.531v10.625h10.625v-10.625h-10.625zm49.625,0v10.625h10.625v-10.625h-10.625zm-21.281,7.0938c1.0798,0.24801,3.1723-0.51672,3.5625,0.4209-0.31333,1.0041,0.76821,3.403-0.84181,3.1103-1.1694-0.1584-3.3058,0.65017-2.7207-1.2627v-2.2685zm3.5625,7.0938c1.0647,0.25272,3.1585-0.5237,3.5312,0.4209-0.31333,1.0041,0.76821,3.403-0.84181,3.1103-1.1636-0.15381-3.2793,0.64454-2.6894-1.2627v-2.2685zm28.344,7.093v10.625c1.0647,0.25272,3.1585-0.5237,3.5312,0.4209,0.31333,1.0041-0.76821,3.403,0.84181,3.1103,1.1694-0.1584,3.3058,0.65017,2.7207-1.2627v-12.894h-7.0938zm-46.062,3.531c1.0647,0.25272,3.1585-0.5237,3.5312,0.4209-0.31333,1.0041,0.76821,3.403-0.84181,3.1103-1.1636-0.15381-3.2793,0.64454-2.6894-1.2627v-2.2685zm-21.25,17.719v24.812h24.781v-24.812h-24.781zm3.5312,3.5312h17.719v17.719h-17.719v-17.719zm3.531,3.563v10.625h10.625v-10.625h-10.625zm63.781,10.625c0.25272,1.0647-0.5237,3.1585,0.4209,3.5312,1.0153-0.31252,3.4217,0.76612,3.1416-0.84181-0.15381-1.1636,0.64454-3.2793-1.2627-2.6894h-2.2998z"/>
</svg>
